<svg width="48" height="38" viewBox="0 0 48 38" fill="none" xmlns="http://www.w3.org/2000/svg">
<path d="M47.8761 5.36372C47.6597 4.27378 47.1764 3.27638 46.5015 2.45241C46.3592 2.27288 46.2105 2.11209 46.0493 1.95131C44.8536 0.749625 43.1753 0 41.3418 0H6.65822C4.82475 0 3.15244 0.749625 1.95103 1.95131C1.79025 2.11209 1.64156 2.27288 1.49888 2.45241C0.823594 3.27628 0.340313 4.27378 0.129937 5.36372C0.0435 5.78438 0 6.21909 0 6.65859V31.0179C0 31.9524 0.198187 32.8507 0.551625 33.662C0.879469 34.4363 1.36284 35.137 1.95094 35.7246C2.1 35.8732 2.24803 36.0099 2.40956 36.1459C3.56137 37.0998 5.04816 37.6759 6.65822 37.6759H41.3418C42.9524 37.6759 44.4457 37.0998 45.5908 36.1399C45.7519 36.0099 45.9007 35.8732 46.0493 35.7246C46.6372 35.137 47.1204 34.4363 47.455 33.662V33.656C47.8084 32.8447 47.9999 31.9524 47.9999 31.018V6.65859C48 6.21909 47.9572 5.78438 47.8761 5.36372ZM4.36022 4.36022C4.95506 3.76603 5.75391 3.40631 6.65822 3.40631H41.3418C42.2461 3.40631 43.052 3.76603 43.6398 4.36022C43.745 4.46606 43.8441 4.584 43.9315 4.70119L25.7528 20.5445C25.2514 20.9839 24.6321 21.2009 24 21.2009C23.3743 21.2009 22.7554 20.9839 22.2473 20.5445L4.0755 4.69444C4.15594 4.57725 4.25503 4.46606 4.36022 4.36022ZM3.40631 31.0179V8.21934L16.5617 19.6957L3.41297 31.16C3.40631 31.1165 3.40631 31.0675 3.40631 31.0179ZM41.3418 34.2689H6.65822C6.06938 34.2689 5.51841 34.1141 5.04816 33.8422L18.9211 21.7523L20.2162 22.8789C21.3001 23.8208 22.6564 24.2977 24 24.2977C25.3506 24.2977 26.7068 23.8208 27.7905 22.8789L29.085 21.7523L42.9525 33.8422C42.4816 34.1141 41.9306 34.2689 41.3418 34.2689ZM44.5937 31.0179C44.5937 31.0675 44.5937 31.1165 44.5873 31.16L31.4387 19.7024L44.5937 8.22544V31.0179Z" fill="black" fill-opacity="0.3"/>
</svg>
