<svg width="27" height="48" viewBox="0 0 27 48" fill="none" xmlns="http://www.w3.org/2000/svg">
<path d="M22.3952 22.3959C24.7637 20.0338 26.2403 16.7288 26.238 13.1194C26.2395 9.50916 24.7637 6.2041 22.396 3.84272C20.0347 1.47441 16.7288 -0.00234096 13.1186 2.7857e-06C9.50841 -0.00234096 6.20335 1.47441 3.84197 3.84272C1.47441 6.2041 -0.00234096 9.50916 2.7857e-06 13.1194C-0.00234096 16.7288 1.47441 20.0338 3.84197 22.3959C5.50631 24.0642 7.64541 25.2769 10.024 25.854V48H10.8307H16.2132H21.8647V42.0797H16.2132V38.8495H22.1429V34.8128H16.2132V25.854C18.5918 25.2769 20.7308 24.0642 22.3952 22.3959ZM13.1186 18.1637C11.7121 18.1622 10.4766 17.6055 9.55097 16.6862C8.63166 15.7607 8.07591 14.5252 8.07347 13.1194C8.07591 11.7128 8.63166 10.4766 9.55097 9.55097C10.4774 8.63166 11.7128 8.07497 13.1186 8.07347C14.5252 8.07497 15.7606 8.63166 16.687 9.55097C17.6063 10.4765 18.1621 11.7128 18.1645 13.1194C18.1621 14.5251 17.6063 15.7606 16.687 16.6862C15.7614 17.6055 14.5252 18.1621 13.1186 18.1637Z" fill="black" fill-opacity="0.3"/>
</svg>
