<svg width="20" height="20" viewBox="0 0 20 20" fill="none" xmlns="http://www.w3.org/2000/svg">
<g clip-path="url(#clip0_115_1056)">
<path d="M14.033 8.75016H11.6897C11.4468 8.75016 11.2499 8.55316 11.2499 8.31039V5.96695C11.2499 5.72418 11.0531 5.52734 10.8102 5.52734H9.18969C8.94684 5.52734 8.74993 5.72418 8.74993 5.96695V8.31039C8.74993 8.55316 8.55309 8.75016 8.31024 8.75016H5.96696C5.72403 8.75016 5.52719 8.94699 5.52719 9.18992V10.8104C5.52719 11.0532 5.72403 11.2502 5.96696 11.2502H8.31024C8.55309 11.2502 8.74993 11.447 8.74993 11.6899V14.033C8.74993 14.276 8.94684 14.4728 9.18969 14.4728H10.8102C11.0531 14.4728 11.2499 14.276 11.2499 14.033V11.6899C11.2499 11.447 11.4468 11.2502 11.6897 11.2502H14.033C14.2758 11.2502 14.4727 11.0532 14.4727 10.8104V9.18992C14.4727 8.94699 14.2758 8.75016 14.033 8.75016Z" fill="white"/>
<path d="M10 0C4.47707 0 0 4.47723 0 10C0 15.5229 4.47707 20 10 20C15.5228 20 20 15.5229 20 10C20 4.47723 15.5228 0 10 0ZM10 17.5C5.86441 17.5 2.5 14.1356 2.5 10C2.5 5.86457 5.86441 2.5 10 2.5C14.1354 2.5 17.5 5.86457 17.5 10C17.5 14.1356 14.1354 17.5 10 17.5Z" fill="white"/>
</g>
<defs>
<clipPath id="clip0_115_1056">
<rect width="20" height="20" fill="white"/>
</clipPath>
</defs>
</svg>
